<svg width="192" height="31" viewBox="0 0 192 31" fill="none" xmlns="http://www.w3.org/2000/svg">
<path d="M188.002 0.5L182.408 8.80302H177.209C177.209 8.80302 174.099 8.51365 171.859 11.2331C170.542 12.8312 170.01 14.9325 170.355 16.9778C170.651 18.737 171.59 20.8449 174.221 21.93C174.221 21.93 178.802 23.7846 182.07 20.2332C182.07 20.2332 183.65 18.9771 183.758 16.7936H176.943L182.484 8.80631L190.76 8.79973C190.76 8.79973 195.867 20.5851 185.348 28.1482C185.348 28.1482 175.318 34.1593 167.133 26.9611C167.133 26.9611 159.54 20.7955 162.778 11.072C164.046 7.27066 166.719 4.09085 170.28 2.26583C171.984 1.39114 174.086 0.67757 176.546 0.513153L187.998 0.506577L188.002 0.5Z" fill="#00ABBE"/>
<path d="M88.1499 27.1946L88.1368 8.72739V8.53338H87.9036L85.0496 8.53667H84.8197L84.8164 8.72739L84.8295 27.1979V27.3853L85.0627 27.3886L87.9168 27.3853H88.1499V27.1946Z" fill="#00ABBE"/>
<path d="M132.691 27.165L132.681 8.69451V8.50378H132.445L129.594 8.50707H129.361V8.6978L129.371 27.165L129.374 27.3525L129.607 27.3557H132.458H132.691V27.165Z" fill="#1A254E"/>
<path d="M157.268 15.9946L154.348 15.9979L154.341 8.68135L154.345 8.49063H154.108H151.254H151.024L151.021 8.68464L151.034 27.1519L151.037 27.3393L151.267 27.3426L154.121 27.3393H154.355V27.1486L154.348 18.668H157.271H157.304V18.4806L157.301 16.1853V15.9979L157.268 15.9946Z" fill="#1A254E"/>
<path d="M127.693 21.1145L117.791 21.1211L117.787 17.4184L126.379 17.4119L126.501 17.4151V17.4086L126.504 17.3099L126.497 8.81946V8.72081H126.307H126.234L114.519 8.72739L114.401 8.73068L114.398 8.8951L114.401 10.947V11.1114L114.523 11.1147L123.114 11.1081L123.118 14.847L114.526 14.8535H114.405V15.0344V15.1067V17.2409L114.408 21.2888V23.3407V23.3802V23.4262V23.4295V23.5051H114.411L114.648 23.5084L117.554 23.5051H117.791L127.696 23.4985H127.831V23.3308V21.2822V21.1145H127.693Z" fill="#1A254E"/>
<path d="M111.797 23.8438H111.587L102.105 23.8504L102.102 19.8025V19.7597H101.862L98.916 19.763H98.6795L98.6762 19.8058L98.6795 23.8504L91.5887 23.857H91.3818V24.0345L91.3851 26.195V26.3725H91.592L111.59 26.3594H111.794L111.797 26.1818V24.0181V23.8438Z" fill="#1A254E"/>
<path d="M106.345 11.4238L106.348 14.6266L94.1043 14.6332H93.9434V14.8108V16.9745L93.9467 17.1488L94.1043 17.1521L106.351 17.1422V21.4861L106.355 21.611L106.591 21.6143L109.498 21.611H109.734L109.737 21.4828L109.728 9.03321V8.90496H109.491L106.581 8.90825H106.348L93.4606 8.91811H93.2964V9.09568V11.2561V11.4304L93.4639 11.4337L106.345 11.4238Z" fill="#1A254E"/>
<path d="M139.125 18.8193C139.243 19.3355 139.395 19.7992 139.585 20.2102C139.395 19.7992 139.24 19.3388 139.125 18.8193Z" fill="#0F235D"/>
<path d="M139.582 12.9003C139.391 13.3146 139.24 13.7783 139.122 14.2978C139.237 13.7783 139.391 13.3146 139.582 12.9003Z" fill="#0F235D"/>
<path d="M142.114 22.2029C141.996 22.2029 141.884 22.1931 141.769 22.1766C141.881 22.1931 141.996 22.2029 142.114 22.2029Z" fill="#0F235D"/>
<path d="M144.787 13.3278C144.676 13.0285 144.548 12.7523 144.403 12.5024C144.331 12.3774 144.259 12.2591 144.18 12.144C144.259 12.2558 144.331 12.3741 144.403 12.5024C144.544 12.7556 144.672 13.0318 144.787 13.3278Z" fill="#0F235D"/>
<path d="M143.391 11.3252C143.099 11.1147 142.787 10.9865 142.449 10.9339C142.784 10.9865 143.099 11.118 143.391 11.3252Z" fill="#0F235D"/>
<path d="M142.104 10.9075C141.986 10.9075 141.874 10.9174 141.759 10.9339C141.871 10.9174 141.986 10.9075 142.104 10.9075Z" fill="#0F235D"/>
<path d="M142.456 22.1766C142.791 22.124 143.106 21.9892 143.395 21.7755C143.493 21.7031 143.585 21.6275 143.677 21.542C143.585 21.6275 143.493 21.7064 143.395 21.7755C143.103 21.9892 142.791 22.124 142.456 22.1766Z" fill="#0F235D"/>
<path d="M148.163 13.2653C147.841 12.2755 147.391 11.4271 146.813 10.7168C146.232 10.0065 145.542 9.46068 144.738 9.07595C143.933 8.69121 143.056 8.50049 142.104 8.50049C141.151 8.50049 140.255 8.6945 139.457 9.07924C138.662 9.46397 137.975 10.0131 137.394 10.7234C136.816 11.4337 136.366 12.2854 136.048 13.2751C135.729 14.2649 135.568 15.3566 135.571 16.5536C135.575 17.7505 135.732 18.8423 136.054 19.8288C136.376 20.8186 136.826 21.6637 137.404 22.3674C137.982 23.0711 138.672 23.6169 139.466 24.0082C140.261 24.3995 141.145 24.5935 142.114 24.5935C143.082 24.5935 143.943 24.3963 144.748 24.0049C145.552 23.6136 146.242 23.0645 146.823 22.3608C147.401 21.6571 147.851 20.8087 148.17 19.8189C148.488 18.8291 148.649 17.7374 148.649 16.5404C148.649 15.3435 148.488 14.2518 148.167 13.2653H148.163ZM145.188 18.2865C145.158 18.4674 145.122 18.645 145.079 18.816C144.997 19.1612 144.899 19.4835 144.787 19.7794C144.675 20.0754 144.547 20.3483 144.406 20.5982C144.334 20.7232 144.262 20.8416 144.183 20.9534C144.028 21.177 143.858 21.371 143.677 21.542C143.585 21.6275 143.493 21.7064 143.394 21.7755C143.102 21.9892 142.79 22.124 142.455 22.1766C142.344 22.1931 142.229 22.2029 142.114 22.2029C141.995 22.2029 141.884 22.1931 141.769 22.1766C141.545 22.1405 141.329 22.0714 141.118 21.9629C141.013 21.9103 140.912 21.8478 140.813 21.7755C140.715 21.7031 140.616 21.6275 140.524 21.542C140.432 21.4565 140.343 21.3677 140.258 21.2691C140.087 21.0718 139.93 20.8514 139.788 20.6015C139.716 20.4766 139.65 20.345 139.585 20.2102C139.394 19.7992 139.24 19.3388 139.125 18.8193C139.086 18.6483 139.053 18.4707 139.023 18.2898C138.934 17.7473 138.892 17.1685 138.892 16.5503C138.892 15.9321 138.934 15.3698 139.023 14.8272C139.053 14.6464 139.086 14.4721 139.125 14.2978C139.24 13.7783 139.394 13.3146 139.585 12.9003C139.647 12.7622 139.716 12.6306 139.785 12.5057C139.926 12.2525 140.084 12.0289 140.255 11.8349C140.34 11.7362 140.429 11.6474 140.521 11.5619C140.613 11.4764 140.708 11.4008 140.81 11.3317C140.908 11.2627 141.01 11.2002 141.115 11.1476C141.322 11.0424 141.539 10.9733 141.762 10.9371C141.874 10.9207 141.989 10.9108 142.107 10.9108C142.225 10.9108 142.337 10.9207 142.452 10.9371C142.787 10.9898 143.102 11.1213 143.394 11.3285C143.493 11.3975 143.585 11.4764 143.677 11.5586C143.858 11.7263 144.028 11.9203 144.183 12.1472C144.262 12.259 144.334 12.3774 144.406 12.5057C144.547 12.7589 144.675 13.0351 144.79 13.331C144.905 13.627 145 13.9525 145.083 14.2978C145.125 14.4688 145.161 14.6464 145.191 14.8272C145.283 15.3665 145.332 15.942 145.332 16.5503C145.332 17.1587 145.286 17.7473 145.194 18.2898L145.188 18.2865Z" fill="#1A254E"/>
<path d="M139.785 12.5024C139.926 12.2492 140.084 12.0256 140.255 11.8316C140.084 12.0289 139.926 12.2525 139.785 12.5024Z" fill="#0F235D"/>
<path d="M142.114 22.2029C142.232 22.2029 142.344 22.1931 142.455 22.1766C142.344 22.1931 142.229 22.2029 142.114 22.2029Z" fill="#0F235D"/>
<path d="M140.527 21.542C140.619 21.6275 140.715 21.7031 140.816 21.7755C140.718 21.7031 140.619 21.6275 140.527 21.542Z" fill="#0F235D"/>
<path d="M145.326 16.5437C145.326 17.1619 145.28 17.7407 145.188 18.2833C145.28 17.7407 145.326 17.1587 145.326 16.5437C145.326 15.9288 145.28 15.3632 145.185 14.8207C145.277 15.3599 145.326 15.9354 145.326 16.5437Z" fill="#0F235D"/>
<path d="M141.112 11.1443C141.007 11.1969 140.908 11.2594 140.807 11.3285C140.708 11.3975 140.61 11.4764 140.518 11.5586C140.61 11.4731 140.705 11.3975 140.807 11.3285C140.905 11.2594 141.007 11.1969 141.112 11.1443Z" fill="#0F235D"/>
<path d="M142.104 10.9075C142.222 10.9075 142.334 10.9174 142.449 10.9339C142.337 10.9174 142.222 10.9075 142.104 10.9075Z" fill="#0F235D"/>
<path d="M39.0137 23.3604L34.0577 11.4271L38.0284 11.4238H38.2583L38.2616 11.2331V9.18776L38.2583 8.97401H38.0284L26.4054 8.98388H26.1459V9.19433V11.2397V11.4271L26.4054 11.4304H30.376L25.4956 23.3637L28.8948 23.367L32.2185 15.133L35.8148 23.367" fill="#00ABBE"/>
<path d="M66.2076 27.1749L66.1944 8.70766V8.51694H65.9612H63.1072H62.874V8.71095L62.8872 27.1782V27.3656L63.1203 27.3689L65.9744 27.3656H66.2043L66.2076 27.1749Z" fill="#00ABBE"/>
<path d="M44.2061 27.1913L44.193 8.72081V8.53009H43.9598L41.1057 8.53337H40.8758L40.8726 8.7241L40.8857 27.1913V27.3821L41.1189 27.3853L43.9729 27.3821H44.2061V27.1913Z" fill="#00ABBE"/>
<path d="M82.0806 11.243H82.2021L82.2054 11.0654V8.90496V8.72739H82.0773L69.9616 8.73725L69.8335 8.73396V8.91153V8.92797L69.8368 11.0753V11.2495L69.8401 14.9982V15.1758V17.3362V17.5105L69.8433 20.7988V20.9764V23.1401V23.1566V23.3144H69.9714L82.0871 23.3078H82.2119L82.2152 23.1302L82.2119 20.9665V20.7922H82.0871L73.1638 20.7988L73.1605 17.5105L81.8802 17.5072L82.0017 17.5039L82.005 17.3296L82.0017 15.1659V14.9916L81.8802 14.9884L73.1605 14.9949L73.1572 11.2495L82.0806 11.243Z" fill="#00ABBE"/>
<path d="M61.5278 20.8087H59.3405L59.3339 11.4633H61.1173V8.87207H60.9793L47.8094 8.87865H47.6747V11.4699H49.6223L49.6289 20.8186H47.1328V23.2256H52.9493L56.1941 23.219H61.6756V20.8087H61.5245H61.5278ZM52.9427 11.4633H56.0135L56.0201 20.8087H52.9493L52.9427 11.4633Z" fill="#00ABBE"/>
<path d="M2.82119 24.9323L3.46819 24.5015L3.63241 24.3897L3.50432 24.2318C3.07408 23.6564 2.70953 23.0842 2.41723 22.5153C2.12493 21.9464 1.88846 21.3743 1.71768 20.7988C1.54361 20.2234 1.41881 19.6413 1.33998 19.0527C1.26116 18.4641 1.22175 17.8591 1.22175 17.2343C1.22175 16.6095 1.26116 16.0012 1.33998 15.4093C1.41881 14.8141 1.54361 14.232 1.71768 13.6566C1.89174 13.0811 2.12493 12.509 2.41723 11.9401C2.70953 11.3712 3.07408 10.799 3.50432 10.2236L3.6127 10.069L3.46819 9.97037L2.82119 9.51987L2.67668 9.41465L2.55188 9.57249C1.80964 10.5064 1.19876 11.6277 0.719256 12.9266C0.239752 14.2288 0 15.6625 0 17.2343C0 18.8061 0.239752 20.2267 0.719256 21.5354C1.19876 22.8442 1.80964 23.9589 2.55188 24.8829L2.67012 25.0276L2.82119 24.9388V24.9323Z" fill="#00ABBE"/>
<path d="M16.5164 10.3847H6.0166V11.3482H16.5164V10.3847Z" fill="#00ABBE"/>
<path d="M17.7482 18.3096H4.78516V19.273H17.7482V18.3096Z" fill="#00ABBE"/>
<path d="M11.748 24.9092V18.5134H10.7858V24.9092H11.748Z" fill="#00ABBE"/>
<path d="M11.8201 11.3317L7.13017 16.4681L5.62598 16.4484L10.9596 10.6675L11.8201 11.3317Z" fill="#00ABBE"/>
<path d="M10.6904 11.3317L15.3837 16.4681L16.8879 16.4484L11.5542 10.6675L10.6904 11.3317Z" fill="#00ABBE"/>
<path d="M19.7121 24.9323L19.0651 24.5015L18.9009 24.3897L19.029 24.2318C19.4592 23.6564 19.8238 23.0842 20.1161 22.5153C20.4084 21.9464 20.6448 21.3743 20.8156 20.7988C20.9897 20.2234 21.1145 19.6413 21.1933 19.0527C21.2721 18.4641 21.3115 17.8591 21.3115 17.2343C21.3115 16.6095 21.2721 16.0012 21.1933 15.4093C21.1145 14.8141 20.9897 14.232 20.8156 13.6566C20.6415 13.0811 20.4084 12.509 20.1161 11.9401C19.8238 11.3712 19.4592 10.799 19.029 10.2236L18.9206 10.069L19.0651 9.97037L19.7121 9.51987L19.8566 9.41465L19.9814 9.57249C20.7237 10.5064 21.3345 11.6277 21.814 12.9266C22.2935 14.2288 22.5333 15.6625 22.5333 17.2343C22.5333 18.7929 22.2935 20.2267 21.814 21.5354C21.3345 22.8442 20.7237 23.9589 19.9814 24.8829L19.8632 25.0276L19.7121 24.9388V24.9323Z" fill="#00ABBE"/>
</svg>
